<svg width="207" height="252" viewBox="0 0 207 252" fill="none" xmlns="http://www.w3.org/2000/svg">
<path d="M10.115 44.5C16.7738 41.7588 28.115 48.5 28.115 48.5V172.5C28.115 172.5 16.7603 179.274 10.115 176.5C4.73932 174.256 0.859073 170.82 0.615027 165C-0.557017 137.048 0.238623 97.447 0.615027 55.5C0.665958 49.8242 4.86631 46.6607 10.115 44.5Z" fill="white"/>
<path d="M44.126 18.9146C51.7049 15.0904 64.6133 24.4951 64.6133 24.4951V197.489C64.6133 197.489 51.6895 206.939 44.126 203.069C38.0075 199.939 33.5911 195.145 33.3133 187.026C31.9793 148.03 32.8849 92.7817 33.3133 34.2609C33.3713 26.3425 38.152 21.929 44.126 18.9146Z" fill="white"/>
<path d="M144.498 207C139.5 213 113 251.999 110.998 251C108.997 250.001 108.242 248.598 107.998 246.5C106.91 237.125 110.658 217.441 107.998 217C105.338 216.559 98.1714 221.222 91.4982 221.5C77.8948 222.068 70.3956 213.481 69.9983 201.5C67.9301 139.139 70.4984 22.5001 71.4983 17C72.4981 11.5 79.6896 -2.57357 97.4982 1.50003C126.48 8.12934 161.25 20.0896 193.498 29.5C202.557 32.1436 204.272 41.2915 205.941 50.1969L205.998 50.5C207.686 59.5 206.5 167.5 205.998 173.5C205.497 179.5 202.962 189.379 192.998 193C183.035 196.621 149.497 201 144.498 207Z" fill="white"/>
<path d="M121 114.5H100V189.5L121 184V114.5Z" fill="#111827"/>
<path d="M149 83H128V181L149 175.5V83Z" fill="#111827"/>
<path d="M177 54H156V174L177.5 167L177 54Z" fill="#111827"/>
</svg>
