<svg width="35" height="42" viewBox="0 0 35 42" fill="none" xmlns="http://www.w3.org/2000/svg">
<path d="M1.68915 7.30254C2.80112 6.84478 4.69504 7.97051 4.69504 7.97051V28.6778C4.69504 28.6778 2.79886 29.809 1.68915 29.3457C0.791439 28.971 0.14346 28.3972 0.102706 27.4253C-0.0930185 22.7576 0.0398486 16.1444 0.102706 9.13947C0.111211 8.19164 0.812645 7.66336 1.68915 7.30254Z" fill="black"/>
<path d="M7.36787 3.02994C8.6335 2.39132 10.7891 3.96184 10.7891 3.96184V32.8508C10.7891 32.8508 8.63093 34.4289 7.36787 33.7827C6.34611 33.2599 5.6086 32.4594 5.56221 31.1035C5.33944 24.5915 5.49067 15.3653 5.56221 5.59266C5.57189 4.27034 6.37025 3.53332 7.36787 3.02994Z" fill="black"/>
<path d="M24.1305 34.4391C23.2957 35.441 18.8705 41.9536 18.5362 41.7868C18.2019 41.6199 18.0759 41.3857 18.0352 41.0353C17.8534 39.4698 18.4794 36.1826 18.0352 36.109C17.591 36.0354 16.3942 36.814 15.2798 36.8605C13.0081 36.9552 11.7558 35.5214 11.6894 33.5206C11.344 23.1067 11.7729 3.62867 11.9399 2.71019C12.1069 1.79171 13.3078 -0.558488 16.2818 0.12178C21.1215 1.22883 26.9279 3.22612 32.3132 4.79761C33.826 5.23907 34.1123 6.76672 34.3911 8.25386L34.4006 8.30448C34.6825 9.80743 34.4843 27.8428 34.4006 28.8448C34.3169 29.8467 33.8935 31.4964 32.2297 32.1011C30.5658 32.7058 24.9652 33.4371 24.1305 34.4391Z" fill="black"/>
<path d="M20.2061 18.9921H16.6992V31.5166L20.2061 30.5982V18.9921Z" fill="white"/>
<path d="M24.8819 13.7318H21.375V30.0972L24.8819 29.1787V13.7318Z" fill="white"/>
<path d="M29.5577 8.88898H26.0508V28.9283L29.6412 27.7593L29.5577 8.88898Z" fill="white"/>
</svg>
